<?xml version="1.0" encoding="UTF-8"?>
<svg id="_图层_2" data-name="图层 2" xmlns="http://www.w3.org/2000/svg" xmlns:xlink="http://www.w3.org/1999/xlink" viewBox="0 0 43.07 11.87">
  <defs>
    <style>
      .cls-1 {
        fill: url(#_未命名的渐变_145);
      }
    </style>
    <linearGradient id="_未命名的渐变_145" data-name="未命名的渐变 145" x1="1.33" y1="5.93" x2="41.74" y2="5.93" gradientUnits="userSpaceOnUse">
      <stop offset="0" stop-color="#00deff"/>
      <stop offset=".23" stop-color="#15c7f3"/>
      <stop offset=".72" stop-color="#4d8ed7"/>
      <stop offset=".97" stop-color="#6e6dc7"/>
    </linearGradient>
  </defs>
  <g id="_图层_1-2" data-name="图层 1">
    <path class="cls-1" d="M.78,2.74c5.92,2.66,11.84,5.33,17.76,7.99,.74,.33,1.48,.72,2.23,1.01,1.05,.4,1.93-.18,2.88-.61l10.23-4.6c2.81-1.26,5.61-2.52,8.42-3.79,1.76-.79,.23-3.38-1.51-2.59-5.82,2.62-11.63,5.23-17.45,7.85-.85,.38-1.7,.77-2.55,1.15h1.51C16.48,6.53,10.66,3.91,4.85,1.29c-.85-.38-1.7-.77-2.55-1.15C.55-.64-.98,1.95,.78,2.74H.78Z"/>
  </g>
</svg>