<?xml version="1.0" encoding="UTF-8"?>
<svg id="_图层_1" data-name="图层 1" xmlns="http://www.w3.org/2000/svg" xmlns:xlink="http://www.w3.org/1999/xlink" viewBox="0 0 303 337.28">
  <defs>
    <style>
      .cls-1 {
        fill: url(#_未命名的渐变_145);
      }

      .cls-2 {
        fill: #6e6dc7;
      }

      .cls-3, .cls-4 {
        fill: #f9f9f9;
      }

      .cls-4 {
        stroke: #f9f9f9;
        stroke-miterlimit: 10;
      }
    </style>
    <linearGradient id="_未命名的渐变_145" data-name="未命名的渐变 145" x1="58.23" y1="347.32" x2="209.76" y2="84.87" gradientUnits="userSpaceOnUse">
      <stop offset="0" stop-color="#00deff"/>
      <stop offset=".23" stop-color="#15c7f3"/>
      <stop offset=".72" stop-color="#4d8ed7"/>
      <stop offset=".97" stop-color="#6e6dc7"/>
    </linearGradient>
  </defs>
  <circle class="cls-1" cx="151.5" cy="185.78" r="151.5"/>
  <rect class="cls-2" x="212" y="42.28" width="36" height="30" transform="translate(428.72 -71.92) rotate(132.99)"/>
  <rect class="cls-2" x="204" y="20.28" width="95" height="29" rx="12" ry="12" transform="translate(67.83 -140.51) rotate(35.79)"/>
  <path class="cls-3" d="M142,55.28c-52.5,.31-99.08,34.22-117.14,83.25-5.26,14.29-7.77,29.53-7.86,44.75-.04,7.72,11.96,7.73,12,0,.26-47.21,28.92-92.08,73.73-108.85,12.61-4.72,25.81-7.08,39.27-7.15,7.72-.05,7.74-12.05,0-12h0Z"/>
  <ellipse class="cls-4" cx="151" cy="185.78" rx="93.5" ry="94"/>
</svg>